<svg version="1.1" xmlns="http://www.w3.org/2000/svg" viewBox="0 0 1136.81005859375 550.2669677734375" width="1136.81005859375" height="550.2669677734375">
  <!-- svg-source:excalidraw -->
  
  <defs>
    <style>
      @font-face {
        font-family: "Virgil";
        src: url("https://excalidraw.com/Virgil.woff2");
      }
      @font-face {
        font-family: "Cascadia";
        src: url("https://excalidraw.com/Cascadia.woff2");
      }
    </style>
  </defs>
  <rect x="0" y="0" width="1136.81005859375" height="550.2669677734375" fill="#ffffff"></rect><g stroke-linecap="round" transform="translate(94.01031494140625 191.86016845703125) rotate(0 101.5653076171875 56.09092712402344)"><path d="M-1.65 -0.09 C46.59 2.7, 96.59 -0.02, 201.58 0.15 M-0.12 -0.71 C62.45 0.41, 123.97 0.21, 203.17 0.2 M203.39 -1.84 C201.2 43.45, 204.18 85.8, 202.19 111.34 M202.14 -0.48 C202.59 41.49, 201.75 83.22, 203.93 112.49 M204.25 111.7 C124.2 111.14, 47.43 111.25, 0.37 113.18 M202.78 112.32 C160.28 111.37, 116.88 111.71, 0.35 112.93 M-1.65 113.57 C-0.82 69.37, -0.51 24.96, 0.67 -1.8 M-0.59 112.13 C-1.77 70.17, -1.27 28.45, 0.18 0.36" stroke="#000000" stroke-width="1" fill="none"></path></g><g transform="translate(99.01031494140625 235.4510955810547) rotate(0 96.5 12.5)"><text x="96.5" y="18" font-family="Virgil, Segoe UI Emoji" font-size="20px" fill="#000000" text-anchor="middle" style="white-space: pre;" direction="ltr">Broker</text></g><g stroke-linecap="round" transform="translate(94.67462158203125 328.18812561035156) rotate(0 101.5653076171875 56.09092712402344)"><path d="M-0.54 -1.32 C65.72 -1.09, 132.59 -1.29, 203.19 0.68 M0.71 -0.88 C50.84 -1, 103.74 -1.97, 202.64 -0.12 M201.19 0.38 C202.11 23.78, 202.45 49.47, 202.93 113.44 M202.45 0.25 C204.18 31.13, 203.76 62.8, 202.24 112.36 M203.22 111.47 C160.54 112.28, 117.03 112.72, -0.87 112.74 M202.72 111.63 C132.09 111.24, 62.42 111.71, 0.84 111.55 M0.02 113.12 C-1.2 72.44, -0.29 31.22, 1.98 0.86 M-0.47 111.98 C-0.96 83, -0.28 54.94, 0.18 -0.76" stroke="#000000" stroke-width="1" fill="none"></path></g><g transform="translate(99.67462158203125 371.779052734375) rotate(0 96.5 12.5)"><text x="96.5" y="18" font-family="Virgil, Segoe UI Emoji" font-size="20px" fill="#000000" text-anchor="middle" style="white-space: pre;" direction="ltr">Connect</text></g><g stroke-linecap="round" transform="translate(95.74200439453125 55.33613586425781) rotate(0 101.5653076171875 56.09092712402344)"><path d="M-1.43 0.06 C61.51 -1.96, 121.51 -0.06, 204.54 -1.76 M-0.87 -0.49 C43.34 -1.83, 86.88 -1.68, 202.26 0.17 M204.88 -0.21 C204.35 27.88, 204.38 57.75, 201.77 112.68 M202.89 -0.89 C202.87 36.48, 202.66 74.24, 203.18 111.78 M204.5 111.31 C134.34 113.59, 64.34 112, -0.82 111.08 M203.43 113.02 C155.24 113.06, 108.61 112.24, 0.01 112.6 M-0.28 114.16 C0.52 84.46, 0.06 57.74, -0.93 -0.41 M0.11 112.37 C-0.19 86.68, 0.5 61.92, 0.86 0.34" stroke="#000000" stroke-width="1" fill="none"></path></g><g transform="translate(100.74200439453125 98.92706298828125) rotate(0 96.5 12.5)"><text x="96.5" y="18" font-family="Virgil, Segoe UI Emoji" font-size="20px" fill="#000000" text-anchor="middle" style="white-space: pre;" direction="ltr">Zookeeper</text></g><g stroke-linecap="round" transform="translate(10 10) rotate(0 182.7216796875 263.26116943359375)"><path d="M0.24 -1.14 C141.03 3.26, 279.77 1.71, 365.22 1.03 M-0.24 -0.3 C86.09 -1.05, 170.69 -1.57, 365.04 -0.58 M365.46 -0.11 C363.67 117.43, 362.98 236, 365.69 526.13 M365.81 -0.25 C363.94 175.5, 364.28 351.54, 365.24 526.41 M366.48 525.46 C284.59 524.56, 200.96 525.86, -1.06 525.75 M364.88 526.75 C291.38 528.32, 215.92 529.32, -0.3 526.71 M-0.22 526.41 C-2.14 316.2, -1.51 106.2, -0.72 -0.33 M0.2 526.24 C0.57 415.94, 0.29 305.95, -0.34 -0.35" stroke="#000000" stroke-width="1" fill="none"></path></g><g transform="translate(38.8472900390625 489.84063720703125) rotate(0 21.5 12.5)"><text x="0" y="18" font-family="Virgil, Segoe UI Emoji" font-size="20px" fill="#000000" text-anchor="start" style="white-space: pre;" direction="ltr">DC-1</text></g><g stroke-linecap="round" transform="translate(361.72905909778683 477.06844753362657) rotate(0 0.010594062953600769 0.010594062953600769)"><path d="M0 0 C0.01 0, 0.02 0, 0.02 0 M0 0 C0.01 0, 0.01 0, 0.02 0 M0.02 0 C0.02 0.01, 0.02 0.01, 0.02 0.02 M0.02 0 C0.02 0.01, 0.02 0.02, 0.02 0.02 M0.02 0.02 C0.02 0.02, 0.01 0.02, 0 0.02 M0.02 0.02 C0.01 0.02, 0.01 0.02, 0 0.02 M0 0.02 C0 0.01, 0 0.01, 0 0 M0 0.02 C0 0.01, 0 0, 0 0" stroke="#000000" stroke-width="1" fill="none"></path></g><g stroke-linecap="round" transform="translate(309.63868276319727 472.7612334693762) rotate(0 12.46837129773985 12.227566565207155)"><path d="M2.26 3.29 C2.26 3.29, 2.26 3.29, 2.26 3.29 M2.26 3.29 C2.26 3.29, 2.26 3.29, 2.26 3.29 M2.03 8.87 C2.37 8.38, 9.18 6.59, 7.73 -0.06 M1.48 12.39 C2.79 7, 5.46 5.35, 8.46 1.33 M2.56 11.01 C7.41 11.36, 11.21 10.7, 15.91 3.26 M4.11 14.91 C6.57 10.26, 9.13 7.17, 14.54 1.65 M5.24 14.79 C7.94 14.38, 13.08 8.57, 22.41 3.68 M4.24 17.78 C9.99 14.53, 16 6.97, 20.53 4.72 M3.6 22.43 C7.23 17.05, 13.37 15.72, 23.35 6.56 M4.89 25.52 C8.91 19.17, 14.55 11.58, 19.04 5.37 M11.7 22.87 C15.38 20.22, 19.63 15.47, 24.08 7.2 M7.78 25.07 C15.81 21.67, 19.89 13.07, 24.29 10.26 M16.89 26.63 C14.61 23.16, 21.25 21.19, 22.71 15.89 M16.66 26.19 C17.94 20.12, 21.17 19.72, 25.2 14.4 M3.71 21.64 C3.71 21.64, 3.71 21.64, 3.71 21.64 M3.71 21.64 C3.71 21.64, 3.71 21.64, 3.71 21.64 M9.18 21.83 C7.53 22.04, 8.27 20.89, 0.42 16.1 M11.33 21.98 C10.78 20.68, 8.11 19.92, 2.34 13.53 M18.61 24.76 C12.78 20.24, 7.84 10.65, 3.53 12.83 M17.38 24.9 C12.12 20.18, 6.64 13.17, 3.8 10.84 M24.26 24.53 C10.99 16.28, 4.85 4.76, 3.7 3.25 M23.16 20.58 C16.65 18.72, 13.52 14.38, 5.28 5.56 M19.92 18.64 C13.29 14.8, 14.53 9.7, 0.53 4.16 M21.42 19.23 C18.62 12.86, 11.71 7.77, 2.97 -0.75 M25.35 14.41 C20.39 10.2, 15.76 8.65, 7.16 -0.86 M25.49 14.6 C21.09 11.62, 16.99 7.6, 10.34 1.56" stroke="#000000" stroke-width="0.5" fill="none"></path><path d="M11.91 1.59 C14.05 1.11, 16.35 1.31, 18.11 2.38 C19.86 3.46, 21.28 6.01, 22.45 8.04 C23.63 10.06, 25.76 11.79, 25.16 14.53 C24.56 17.28, 21.52 22.68, 18.84 24.5 C16.17 26.33, 11.59 25.95, 9.12 25.51 C6.64 25.07, 5.41 24.22, 3.99 21.89 C2.57 19.56, 0.91 14.61, 0.59 11.54 C0.27 8.47, -1.63 4.3, 2.08 3.49 C5.79 2.68, 19.82 4.05, 22.85 6.65 C25.87 9.26, 20.56 19.4, 20.24 19.14 M6.57 2.94 C7.88 2.09, 9.89 0.68, 12.45 1.11 C15 1.53, 19.74 3.28, 21.89 5.48 C24.04 7.69, 25.13 12.3, 25.36 14.33 C25.59 16.36, 25.44 16.08, 23.27 17.66 C21.1 19.24, 14.59 22.92, 12.34 23.81 C10.09 24.7, 11.61 23.77, 9.76 23 C7.91 22.23, 2.89 21.42, 1.23 19.2 C-0.44 16.99, -1.04 12.47, -0.21 9.74 C0.61 7, 4.94 3.83, 6.19 2.79 C7.45 1.75, 7.25 3.63, 7.31 3.51" stroke="#000000" stroke-width="1" fill="none"></path></g><g stroke-linecap="round" transform="translate(314.13312680970876 477.21228412474295) rotate(0 8.170847985190335 7.583097495341576)"><path d="M3.76 2.22 C5.6 1.45, 10.14 1.2, 11.72 1.17 C13.29 1.15, 12.59 0.82, 13.22 2.07 C13.85 3.31, 15.19 6.68, 15.52 8.63 C15.84 10.58, 15.95 12.67, 15.17 13.78 C14.38 14.88, 12.49 15.34, 10.81 15.24 C9.13 15.15, 6.9 14.2, 5.11 13.23 C3.33 12.26, 0.56 11.08, 0.12 9.43 C-0.31 7.78, 1.59 4.71, 2.5 3.34 C3.4 1.97, 4.74 1.95, 5.55 1.22 C6.36 0.49, 7.01 -1.27, 7.34 -1.02 M16.75 2.01 C17.76 4.04, 15.27 8.92, 15.27 10.43 C15.28 11.94, 18.3 10.7, 16.78 11.09 C15.27 11.48, 8.17 12.38, 6.18 12.77 C4.18 13.17, 6.14 14.35, 4.81 13.45 C3.48 12.54, -0.79 8.54, -1.8 7.37 C-2.81 6.19, -2.2 8.01, -1.27 6.42 C-0.34 4.83, 1.61 -1.22, 3.78 -2.18 C5.95 -3.14, 9.42 -0.67, 11.74 0.65 C14.07 1.97, 16.82 5.13, 17.73 5.73 C18.64 6.33, 17.58 4.43, 17.22 4.25" stroke="none" stroke-width="0" fill="#ffffff"></path><path d="M15.09 1.62 C16.53 2.02, 17.11 3.15, 17.13 4.98 C17.15 6.81, 16.6 10.97, 15.23 12.6 C13.86 14.23, 10.31 14.68, 8.91 14.78 C7.5 14.88, 7.93 13.64, 6.8 13.17 C5.66 12.7, 2.93 13.09, 2.11 11.98 C1.28 10.86, 1.8 8.34, 1.84 6.48 C1.88 4.63, 1.38 2.01, 2.33 0.84 C3.28 -0.32, 5.17 -1.13, 7.53 -0.5 C9.89 0.13, 15.35 3.06, 16.5 4.62 C17.66 6.17, 14.95 8.78, 14.46 8.82 M15.84 1.71 C17.52 2.82, 17.38 6.62, 17.32 8.57 C17.27 10.52, 16.48 12.17, 15.53 13.4 C14.58 14.64, 13.93 16.41, 11.6 15.98 C9.27 15.56, 3.48 11.44, 1.54 10.85 C-0.41 10.27, 0.09 13.52, -0.06 12.48 C-0.21 11.44, -0.51 6.69, 0.65 4.6 C1.82 2.51, 5.15 0.58, 6.94 -0.06 C8.73 -0.69, 9.93 -0.02, 11.39 0.78 C12.85 1.58, 14.91 4.29, 15.7 4.74 C16.48 5.19, 16.48 3.39, 16.08 3.49" stroke="#ffffff" stroke-width="1" fill="none"></path></g><g stroke-linecap="round" transform="translate(311.55570367861105 445.8901945615303) rotate(0 9.8008535099151 9.611567206861707)"><path d="M2.98 2.59 C2.98 2.59, 2.98 2.59, 2.98 2.59 M2.98 2.59 C2.98 2.59, 2.98 2.59, 2.98 2.59 M0.69 10.31 C5.71 10.11, 4.6 3.98, 10.57 0.42 M1.33 8.83 C3 7.94, 5.71 4.44, 8.55 0.66 M4.44 14.99 C10.06 12.8, 13.59 6.6, 14.97 3.4 M2.64 15.02 C5.06 11.84, 10.8 5.88, 14.93 3.86 M3.84 19.34 C6.17 16.95, 13.91 13.27, 19.72 3.05 M5.52 19.36 C9.35 14.57, 13.16 13.11, 16.18 5.09 M6.55 18.58 C13.82 15.92, 20.38 10.21, 21.41 5.63 M6.92 21.85 C12.88 13.85, 16.76 8.19, 21.05 4.64 M14.03 20.88 C15.53 19.21, 16.77 16.55, 19.79 13.12 M14.15 21.78 C16.17 17.85, 18.11 16.66, 19.12 14.8 M7.53 20.3 C7.53 20.3, 7.53 20.3, 7.53 20.3 M7.53 20.3 C7.53 20.3, 7.53 20.3, 7.53 20.3 M12.76 20.25 C9.97 16.22, 4.55 12.13, 4.17 12.79 M11.96 19.28 C10.69 17.73, 7 15.9, 2.66 12.32 M13.48 18.27 C14.34 16.04, 6.15 11.98, -1.94 3.83 M17.55 15.76 C12.22 13.09, 7.62 7.09, 3.09 5.83 M19.81 16.15 C16.52 8.04, 11 9.4, 5.04 3.61 M18.06 15.08 C12.83 8.25, 10.37 6.56, 5.76 2.24 M17.8 11.31 C15.69 5.15, 15.28 4.3, 7.73 1.16 M20.31 11.24 C17 7.24, 13.01 2.8, 9.38 0.63" stroke="#000000" stroke-width="0.5" fill="none"></path><path d="M9.19 0.85 C10.6 0.5, 12.43 1.45, 14.29 2.32 C16.14 3.18, 19.64 3.78, 20.32 6.07 C20.99 8.36, 19.74 13.76, 18.34 16.04 C16.94 18.32, 13.74 19.06, 11.94 19.78 C10.15 20.5, 9.23 21.36, 7.57 20.35 C5.92 19.33, 3.36 15.89, 2 13.69 C0.64 11.48, -0.72 8.92, -0.58 7.1 C-0.44 5.28, 0.17 3.69, 2.83 2.76 C5.5 1.83, 12.89 0.67, 15.43 1.51 C17.96 2.34, 18.15 7.14, 18.05 7.78 M0.33 4.98 C1.3 3.43, 5.37 2.09, 7.73 1.88 C10.1 1.67, 12.56 3.4, 14.54 3.71 C16.52 4.03, 19.31 2.4, 19.6 3.77 C19.89 5.14, 16.52 9.65, 16.29 11.93 C16.06 14.21, 19.45 15.89, 18.23 17.46 C17.02 19.03, 11.72 21.39, 9.01 21.37 C6.3 21.36, 3.4 19.09, 1.99 17.38 C0.58 15.66, 0.31 13.11, 0.54 11.1 C0.77 9.09, 3.09 6.62, 3.36 5.3 C3.64 3.97, 2.02 2.81, 2.18 3.16" stroke="#000000" stroke-width="1" fill="none"></path></g><g stroke-linecap="round" transform="translate(315.2425381270468 449.8493172252962) rotate(0 5.933450560153005 5.741833345579721)"><path d="M10.26 1.59 C11.24 1.65, 9.78 1.42, 9.87 2.49 C9.96 3.56, 10.73 6.5, 10.8 8 C10.86 9.51, 10.88 10.93, 10.24 11.52 C9.59 12.12, 8.13 11.99, 6.93 11.56 C5.73 11.14, 4.24 9.95, 3.06 8.98 C1.87 8.01, -0.19 7.06, -0.2 5.74 C-0.21 4.42, 2.43 1.82, 3.01 1.07 C3.6 0.33, 2.45 1.39, 3.3 1.27 C4.15 1.15, 6.74 -0.24, 8.11 0.36 C9.48 0.96, 10.94 4.69, 11.52 4.86 M0.22 4.22 C1.1 3.15, 6.66 -0.87, 7.66 -1.86 C8.65 -2.85, 5.32 -2.59, 6.2 -1.72 C7.08 -0.86, 12.36 2.12, 12.92 3.33 C13.48 4.53, 10.55 3.92, 9.56 5.5 C8.57 7.08, 7.9 12.29, 6.98 12.81 C6.05 13.34, 4.7 9.1, 4.01 8.63 C3.31 8.15, 3 10, 2.79 9.95 C2.58 9.9, 2.61 9.47, 2.75 8.31 C2.88 7.15, 3.63 3.87, 3.6 3 C3.58 2.13, 2.82 3.03, 2.6 3.1" stroke="none" stroke-width="0" fill="#ffffff"></path><path d="M11.48 0.57 C12.08 1.67, 12.53 5.37, 12.06 6.87 C11.59 8.37, 9.24 9.03, 8.65 9.55 C8.06 10.08, 9.31 9.7, 8.53 10.03 C7.75 10.36, 5.08 11.86, 3.97 11.53 C2.87 11.21, 2.66 9.52, 1.92 8.08 C1.18 6.64, -0.5 4.19, -0.46 2.87 C-0.43 1.55, 0.79 0.81, 2.13 0.15 C3.47 -0.51, 6.15 -1.79, 7.58 -1.08 C9 -0.36, 10.46 2.9, 10.65 4.44 C10.84 5.97, 8.28 8.2, 8.7 8.11 M8.69 0.56 C9.97 1.16, 11.53 1.94, 12.51 3.07 C13.49 4.19, 15.3 6.63, 14.56 7.29 C13.82 7.95, 9.49 5.83, 8.04 7.02 C6.6 8.21, 6.87 13.84, 5.9 14.43 C4.93 15.02, 2.83 11.92, 2.24 10.56 C1.64 9.2, 2.43 7.42, 2.35 6.27 C2.27 5.11, 1.39 4.36, 1.74 3.64 C2.09 2.92, 3.23 2.48, 4.44 1.95 C5.66 1.41, 8.63 0.39, 9.01 0.4 C9.39 0.42, 6.5 2.28, 6.72 2.02" stroke="#ffffff" stroke-width="1" fill="none"></path></g><g stroke-linecap="round" transform="translate(312.64083841257275 504.16651482426425) rotate(0 9.8008535099151 9.611567206861707)"><path d="M2.99 2.6 C2.99 2.6, 2.99 2.6, 2.99 2.6 M2.99 2.6 C2.99 2.6, 2.99 2.6, 2.99 2.6 M4.31 12.12 C2.96 5.67, 6.79 4.92, 9.13 2.28 M1.12 10.35 C5.24 5.45, 7.69 1.78, 10.83 0.23 M6.04 17.12 C7.71 12.93, 8.71 10.47, 14.22 3.43 M1.78 15.85 C8.16 9.18, 12.33 6.89, 12.18 2.76 M3.73 19.57 C11.49 15.93, 12.81 11.06, 15.35 3.5 M6.38 17.81 C10.27 16.07, 10.36 11.61, 18.67 3.44 M8.97 21.25 C14.36 17.2, 15.85 12.33, 24.65 4.56 M7.81 19.79 C11.92 13.97, 18.71 7.46, 20.54 7.36 M13.97 21.03 C14.91 18.66, 16.62 16.73, 20.6 12.68 M13.9 20.33 C15.21 19.62, 16.43 17.69, 19.19 14.71 M7.52 20.31 C7.52 20.31, 7.52 20.31, 7.52 20.31 M7.52 20.31 C7.52 20.31, 7.52 20.31, 7.52 20.31 M13.55 19.33 C9.02 16.11, 7.96 16.2, 2 9.45 M12.76 19.71 C8.86 17.64, 6.81 15.89, 3.04 10.26 M18.03 19.61 C10.38 16, 5.47 10.26, 1.99 3.6 M16.66 17.29 C13.4 12.49, 11.32 13.03, 1.75 4.36 M21.28 12.15 C15.72 13.64, 10.55 8.58, 6.13 -1.36 M17.95 12.75 C15.83 11.32, 10.78 6.57, 2.64 2.85 M18.16 6.82 C15.88 4.2, 9.17 2.62, 10.16 2.06 M21.63 11.16 C18.46 7.5, 13.73 4.6, 8.07 -2.37" stroke="#000000" stroke-width="0.5" fill="none"></path><path d="M14.31 2.33 C16.16 3.05, 19.66 3.81, 20.32 6.1 C20.99 8.39, 19.73 13.79, 18.32 16.07 C16.92 18.35, 13.71 19.08, 11.91 19.79 C10.12 20.5, 9.2 21.36, 7.54 20.34 C5.89 19.31, 3.34 15.87, 1.99 13.66 C0.63 11.45, -0.72 8.89, -0.58 7.07 C-0.43 5.25, 1.36 4.12, 2.86 2.74 C4.36 1.36, 5.85 -2.13, 8.42 -1.22 C10.98 -0.3, 17.29 4.8, 18.24 8.22 C19.19 11.64, 14.35 18.91, 14.1 19.29 M13.2 2.09 C15.47 2.88, 17.41 6.15, 18.6 7.32 C19.78 8.49, 21.21 7.57, 20.34 9.09 C19.47 10.62, 14.59 14.8, 13.37 16.47 C12.15 18.14, 14.59 18.62, 13.02 19.1 C11.45 19.58, 6.21 20.42, 3.94 19.34 C1.68 18.26, -0.19 14.87, -0.56 12.63 C-0.94 10.38, 0.32 7.62, 1.7 5.85 C3.07 4.08, 5.8 3.06, 7.69 2.01 C9.58 0.96, 11.92 -0.68, 13.05 -0.43 C14.18 -0.17, 14.9 3.45, 14.5 3.52" stroke="#000000" stroke-width="1" fill="none"></path></g><g stroke-linecap="round" transform="translate(316.3546064206532 508.1748608901404) rotate(0 6.1071255826926745 5.75437138196628)"><path d="M8.59 0.4 C9.17 1.05, 10.69 3.88, 11.33 5.43 C11.97 6.98, 12.67 8.7, 12.42 9.68 C12.17 10.67, 11 11.19, 9.82 11.32 C8.65 11.45, 6.93 10.97, 5.38 10.46 C3.84 9.95, 1.13 9.42, 0.55 8.25 C-0.02 7.08, 1.86 4.42, 1.92 3.45 C1.99 2.47, 0.56 3.18, 0.96 2.4 C1.35 1.62, 2.43 -1.7, 4.29 -1.25 C6.15 -0.79, 10.5 4.11, 12.13 5.13 C13.75 6.14, 14.54 4.9, 14.06 4.82 M6.37 -1.39 C7.21 -2.71, 4.02 -2.8, 5.04 -2.22 C6.07 -1.64, 11.66 1.04, 12.52 2.1 C13.37 3.16, 10.86 2.48, 10.18 4.12 C9.49 5.76, 9.16 11.18, 8.41 11.94 C7.65 12.69, 6.4 8.84, 5.66 8.66 C4.92 8.49, 4.43 10.72, 3.98 10.89 C3.54 11.07, 3.18 10.83, 2.99 9.72 C2.81 8.61, 2.6 5.61, 2.87 4.22 C3.15 2.84, 4.46 1.85, 4.65 1.4 C4.84 0.95, 3.8 1.72, 4 1.52" stroke="none" stroke-width="0" fill="#ffffff"></path><path d="M5.08 1.02 C5.86 0.98, 5.92 0.44, 7.34 0.65 C8.76 0.85, 12.62 0.93, 13.58 2.24 C14.55 3.55, 13.55 7, 13.11 8.51 C12.67 10.01, 12.41 10.87, 10.94 11.24 C9.47 11.62, 6.05 11.11, 4.31 10.75 C2.57 10.38, 1.15 10.07, 0.49 9.06 C-0.16 8.05, 0.45 6.08, 0.39 4.7 C0.32 3.33, -1.38 1.4, 0.11 0.82 C1.59 0.25, 7.13 0.28, 9.31 1.26 C11.49 2.25, 12.87 6.38, 13.18 6.74 M4.7 1.19 C6.03 0.64, 9.27 1.28, 9.96 0.94 C10.66 0.6, 8.58 -2.14, 8.9 -0.83 C9.21 0.47, 11.59 7, 11.88 8.76 C12.17 10.52, 11.06 9.41, 10.63 9.73 C10.2 10.05, 10.4 10.42, 9.31 10.67 C8.22 10.92, 5.45 11.48, 4.09 11.22 C2.73 10.97, 1.56 10.38, 1.17 9.16 C0.77 7.94, 1.56 5.01, 1.73 3.88 C1.9 2.76, 1.47 3.23, 2.19 2.4 C2.9 1.57, 6.04 -0.72, 6.01 -1.1" stroke="#ffffff" stroke-width="1" fill="none"></path></g><g stroke-linecap="round" transform="translate(337.02757196376956 458.39845202224876) rotate(0 9.8008535099151 9.611567206861707)"><path d="M0.44 3.03 C0.44 3.03, 0.44 3.03, 0.44 3.03 M0.44 3.03 C0.44 3.03, 0.44 3.03, 0.44 3.03 M-1.37 7.81 C3.65 5.62, 4.02 5.35, 10.65 -1.35 M-0.57 9.31 C0.68 7.05, 4.35 5.35, 6.84 0.91 M4.57 14.43 C6.57 10.3, 9.23 6.33, 15.51 -0.27 M3.02 12.6 C7.11 10.62, 7.8 5.29, 11.38 -0.04 M8.14 17.77 C11.52 10.21, 11.09 5.63, 15.52 1.95 M6.25 18.8 C7.8 12.05, 15.48 4.55, 16.79 0.83 M10.14 19.11 C11.22 14.8, 17.19 10.45, 23.21 2.25 M6.25 18.04 C12.41 12.41, 16.22 10.03, 18.57 5.78 M12.33 19.18 C14.36 16.85, 16.9 14.41, 17.81 14.47 M12.43 20.56 C14.21 17.99, 16.57 15.25, 18.6 12.24 M2.38 15.55 C2.38 15.55, 2.38 15.55, 2.38 15.55 M2.38 15.55 C2.38 15.55, 2.38 15.55, 2.38 15.55 M9.54 16.18 C7.93 15.85, 2.67 9.81, 0.6 8.35 M9.16 17.66 C6.81 15.75, 4.45 11.31, 0.59 8.52 M15.31 20.22 C8.38 13.01, 7.19 8.13, -2.22 7.96 M18.27 16.26 C15.22 16.27, 10.01 11.4, 1.9 4.59 M19.16 16.18 C13.48 10.61, 9.44 1.16, 4.24 -2.28 M19.43 14.2 C14.7 9.32, 6.65 5.62, 4.41 -1.72 M18.5 6.38 C12.9 5.15, 12.71 3.58, 5.23 -2.38 M19.76 8.22 C13.98 4.63, 9.66 -0.89, 6.56 -3.92 M18.85 6.61 C18.42 1.33, 15.7 -1.48, 15.03 -0.25 M20.07 4.16 C18.63 2.31, 16.41 0.62, 13.23 -1.52" stroke="#000000" stroke-width="0.5" fill="none"></path><path d="M14.75 -0.82 C16.89 0.15, 18.07 4.92, 18.59 7.26 C19.11 9.59, 18.25 11.24, 17.89 13.21 C17.53 15.17, 17.82 18.22, 16.44 19.06 C15.06 19.91, 12 18.9, 9.64 18.29 C7.27 17.69, 3.93 16.66, 2.25 15.44 C0.56 14.21, -0.17 13.01, -0.46 10.93 C-0.75 8.86, -0.54 5.02, 0.5 2.96 C1.55 0.91, 3.1 -1.94, 5.81 -1.41 C8.52 -0.89, 14.79 4.26, 16.74 6.11 C18.69 7.97, 17.34 10.1, 17.51 9.7 M13.5 3.28 C15.51 3.23, 18.57 1.53, 19.08 2.79 C19.58 4.05, 16.53 8.51, 16.54 10.84 C16.55 13.18, 20.2 15.02, 19.13 16.79 C18.07 18.55, 12.86 21.2, 10.14 21.42 C7.42 21.65, 4.4 19.67, 2.82 18.13 C1.25 16.59, 0.69 14.19, 0.68 12.2 C0.67 10.22, 1.78 8.32, 2.75 6.23 C3.72 4.15, 4.5 0.17, 6.5 -0.3 C8.49 -0.78, 13.96 3.45, 14.71 3.39 C15.47 3.33, 11.56 -0.57, 11.04 -0.65" stroke="#000000" stroke-width="1" fill="none"></path></g><g stroke-linecap="round" transform="translate(340.77013101836815 462.13189003105697) rotate(0 6.1071255826926745 6.052498024935346)"><path d="M8.11 1.25 C9.69 2.07, 11.91 3.56, 12.83 4.69 C13.76 5.81, 14 7.02, 13.67 7.99 C13.34 8.96, 12.29 9.86, 10.87 10.49 C9.44 11.12, 6.35 12.02, 5.11 11.77 C3.87 11.51, 4.49 9.67, 3.42 8.95 C2.35 8.23, -0.63 8.75, -1.31 7.45 C-1.99 6.14, -1.78 2.03, -0.68 1.13 C0.42 0.22, 2.82 1.23, 5.29 2.01 C7.77 2.79, 14.01 3.99, 14.17 5.79 C14.34 7.59, 6.85 12.83, 6.27 12.82 M7.37 -1.1 C8.15 -0.11, 13.23 3.22, 13.58 4.55 C13.93 5.89, 10.7 5.35, 9.48 6.9 C8.26 8.46, 7.34 13.53, 6.27 13.88 C5.21 14.23, 3.78 9.72, 3.09 9.01 C2.41 8.29, 2.23 9.85, 2.18 9.61 C2.13 9.37, 2.43 8.77, 2.8 7.55 C3.17 6.34, 3.65 3.45, 4.38 2.32 C5.11 1.2, 6.14 0.83, 7.15 0.79 C8.16 0.76, 9.62 2.14, 10.42 2.09 C11.22 2.04, 12 0.95, 11.96 0.48" stroke="none" stroke-width="0" fill="#ffffff"></path><path d="M-0.06 1.91 C0.99 0.56, 5.34 -1.35, 7.12 -1.35 C8.9 -1.35, 9.53 0.86, 10.61 1.89 C11.68 2.92, 13.53 3.87, 13.57 4.83 C13.61 5.8, 11.79 6.67, 10.84 7.68 C9.89 8.7, 8.82 10.4, 7.87 10.92 C6.92 11.43, 6.46 11.17, 5.16 10.75 C3.85 10.33, 1.19 9.39, 0.04 8.37 C-1.12 7.35, -2.92 6.32, -1.76 4.62 C-0.6 2.93, 5.12 -1.27, 7 -1.8 C8.87 -2.33, 9.97 0.93, 9.5 1.45 M9.46 0.87 C10.12 0.36, 8.16 -2.38, 8.56 -1.1 C8.96 0.18, 11.47 6.74, 11.86 8.56 C12.26 10.38, 11.28 9.39, 10.94 9.83 C10.6 10.26, 10.87 10.8, 9.81 11.16 C8.74 11.53, 5.95 12.21, 4.54 12.02 C3.13 11.83, 1.85 11.27, 1.36 10.03 C0.86 8.78, 1.5 5.77, 1.57 4.55 C1.63 3.33, 0.42 3.79, 1.75 2.71 C3.09 1.63, 8.98 -1.3, 9.57 -1.91 C10.17 -2.53, 5.58 -1.2, 5.33 -0.98" stroke="#ffffff" stroke-width="1" fill="none"></path></g><g stroke-linecap="round" transform="translate(338.8125460609292 488.4553513043463) rotate(0 9.8008535099151 9.611567206861707)"><path d="M-1.24 5.55 C-1.24 5.55, -1.24 5.55, -1.24 5.55 M-1.24 5.55 C-1.24 5.55, -1.24 5.55, -1.24 5.55 M0.63 9.79 C1.21 9.34, 4.91 5.38, 3.24 4.04 M-0.65 9.94 C1.95 8.38, 2.38 7.09, 4.48 5.79 M2.87 15.41 C5.89 10.83, 11.58 4.45, 12.78 -0.18 M2.83 15.87 C3.87 10.35, 7.68 4.89, 12.61 1.71 M6.83 15.89 C6.29 11.87, 10.37 8.42, 18.24 6.06 M3.49 17.82 C8.8 12.35, 10.22 8.71, 14.77 4.57 M7.3 19.97 C13.56 14.94, 17.07 9.63, 20.23 6.51 M6.98 19.09 C9.61 18.34, 11.73 14.64, 17.95 8.2 M13.73 17.97 C17.18 14.72, 17.47 15.81, 23.17 11.46 M12.84 20.22 C14.67 17.94, 17.3 14.04, 21.56 10.6 M5.01 18.62 C5.01 18.62, 5.01 18.62, 5.01 18.62 M5.01 18.62 C5.01 18.62, 5.01 18.62, 5.01 18.62 M11.47 19.64 C6.61 13.84, 4.6 12.49, 1.65 11.07 M9.96 19.17 C7.44 14.53, 4.06 12.27, 2.03 11.06 M10.24 14.68 C9.12 10.46, 0.63 10.21, -1.57 5.62 M14.75 16.47 C9.35 11.34, 5.22 8.1, 1.14 4.95 M18.23 15.38 C16.01 8.66, 12.48 6.46, 5.52 0.28 M18.85 14.21 C13.31 12.52, 13.27 7.54, 5.21 1.29 M19.55 11.95 C20.9 11.7, 15.44 7.12, 11.55 3.68 M21.21 11.42 C17.11 6.4, 12.98 2.75, 10.44 2.68" stroke="#000000" stroke-width="0.5" fill="none"></path><path d="M10.7 1.84 C12.31 2.39, 13.76 2.64, 15.4 4.09 C17.03 5.53, 20.01 8.8, 20.5 10.5 C21 12.2, 19.85 13.07, 18.36 14.3 C16.87 15.53, 13.76 17.15, 11.55 17.87 C9.33 18.6, 7.04 19.58, 5.06 18.67 C3.08 17.75, 0.68 14.6, -0.33 12.37 C-1.34 10.14, -1.57 6.73, -1 5.27 C-0.42 3.81, 1.2 4.33, 3.11 3.61 C5.01 2.89, 8.56 1.52, 10.44 0.92 C12.32 0.32, 14.02 -0.09, 14.4 0 M15.61 -0.6 C16.83 -0.23, 15.05 3.82, 16.11 6.06 C17.16 8.31, 22.14 10.5, 21.93 12.85 C21.73 15.2, 17.31 18.96, 14.87 20.17 C12.42 21.39, 9.28 20.75, 7.26 20.15 C5.24 19.55, 3.72 18.1, 2.76 16.55 C1.79 15, 1.54 13.22, 1.49 10.87 C1.45 8.52, 1.1 3.77, 2.49 2.45 C3.89 1.14, 8.12 3.4, 9.84 2.98 C11.56 2.56, 12.21 -0.04, 12.83 -0.05 C13.44 -0.06, 13.5 2.19, 13.54 2.92" stroke="#000000" stroke-width="1" fill="none"></path></g><g stroke-linecap="round" transform="translate(342.9238162596348 492.39218412564753) rotate(0 5.906517000507847 5.851889442750576)"><path d="M4.1 1.7 C5.54 0.98, 7.43 0.26, 8.74 0.23 C10.05 0.19, 11.47 0.58, 11.95 1.48 C12.43 2.38, 11.57 4.47, 11.61 5.64 C11.65 6.8, 13.2 7.28, 12.19 8.47 C11.18 9.65, 7.42 12.56, 5.54 12.75 C3.67 12.94, 1.73 10.15, 0.95 9.63 C0.17 9.12, 0.61 10.74, 0.85 9.65 C1.08 8.56, 2.12 4.46, 2.36 3.09 C2.59 1.73, 1.94 2.06, 2.27 1.46 C2.59 0.85, 3.77 -0.75, 4.33 -0.52 M3.76 1.02 C4.74 0.29, 3.41 -2.43, 4.07 -1.98 C4.73 -1.53, 6.62 3.02, 7.71 3.72 C8.8 4.42, 9.87 1.29, 10.61 2.21 C11.35 3.14, 12.19 7.36, 12.17 9.28 C12.14 11.2, 11.5 13.28, 10.49 13.74 C9.47 14.2, 7.5 12.77, 6.08 12.04 C4.66 11.32, 2.87 10.5, 1.97 9.4 C1.07 8.31, 0.28 6.97, 0.69 5.46 C1.1 3.96, 4.04 1.46, 4.44 0.36 C4.83 -0.75, 2.97 -1.72, 3.05 -1.16" stroke="none" stroke-width="0" fill="#ffffff"></path><path d="M10.28 -0.82 C11.87 -0.2, 12.01 2.91, 12.5 4.39 C12.99 5.87, 13.92 7.1, 13.22 8.04 C12.53 8.97, 9.81 9.48, 8.32 10 C6.82 10.52, 5.3 11.37, 4.26 11.16 C3.22 10.95, 2.96 9.76, 2.05 8.72 C1.14 7.68, -0.75 6.16, -1.2 4.92 C-1.65 3.68, -1.91 2.38, -0.65 1.27 C0.62 0.17, 4.47 -1.92, 6.39 -1.71 C8.31 -1.5, 10.21 1.51, 10.86 2.54 C11.51 3.57, 10.43 4.35, 10.29 4.48 M4.85 -2.87 C5.54 -2.41, 8.85 3.46, 9.99 4.92 C11.13 6.39, 11.24 5.3, 11.69 5.93 C12.15 6.57, 13.32 7.7, 12.73 8.73 C12.15 9.76, 9.65 11.47, 8.17 12.1 C6.7 12.73, 4.98 13.15, 3.91 12.49 C2.84 11.83, 2.5 9.29, 1.75 8.15 C0.99 7.01, -1.27 7.2, -0.61 5.66 C0.04 4.12, 4.66 0.04, 5.67 -1.08 C6.67 -2.2, 4.98 -1.08, 5.4 -1.06 C5.82 -1.05, 7.61 -1.69, 8.18 -1" stroke="#ffffff" stroke-width="1" fill="none"></path></g><g stroke-linecap="round" transform="translate(319.84941464664007 465.0833624240512) rotate(0 1.6257877608342142 3.8330669918154285)"><path d="M0 0 C0 0, 0 0, 0 0 M0 0 C0 0, 0 0, 0 0 M-1.05 7.55 C1.79 3.94, 1.82 2.68, 3.7 1.63 M-0.12 6.87 C0.58 4.6, 1.82 3.33, 4.35 1.64 M-0.02 7.65 C-0.02 7.65, -0.02 7.65, -0.02 7.65 M-0.02 7.65 C-0.02 7.65, -0.02 7.65, -0.02 7.65 M3.68 5.99 C2.28 4.78, 2.71 3.49, 0.64 2.6 M3.9 6.05 C2.58 5.21, 1.22 3.7, 0.71 3.1" stroke="#000000" stroke-width="0.5" fill="none"></path><path d="M0.29 -0.54 C1.1 0.58, 1.77 0.39, 3.55 0.53 M-0.17 -0.08 C1.13 -0.17, 1.94 -0.2, 2.96 -0.19 M3.74 -0.79 C3.63 3.19, 3.92 6.3, 4.65 8.1 M4.01 -0.03 C3.16 2.37, 2.91 3.89, 3.38 7.88 M3.05 8.03 C2.73 7.25, 0.68 7.42, 0.31 7.41 M3 7.5 C1.91 7.79, 1.01 7.85, 0.28 7.69 M-0.22 9.05 C-0.87 3.79, 0.91 0.45, -0.96 0.39 M-0.7 8.12 C-0.51 4.39, 0.36 2.4, -0.51 -0.63" stroke="#000000" stroke-width="1" fill="none"></path></g><g stroke-linecap="round" transform="translate(320.6144195606346 497.0351732727893) rotate(0 1.6257877608342142 3.6636887136292557)"><path d="M0 0 C0 0, 0 0, 0 0 M0 0 C0 0, 0 0, 0 0 M0.89 7.54 C0.14 4.64, 1.75 1.84, 4.85 0.43 M0.21 6.13 C0.84 4.38, 2.46 2.77, 4.86 1.46 M0.15 7.45 C0.15 7.45, 0.15 7.45, 0.15 7.45 M0.15 7.45 C0.15 7.45, 0.15 7.45, 0.15 7.45 M4.34 4.7 C2.93 5.37, 1.26 4.06, -0.32 2.13 M4.41 5.38 C3.31 4.01, 1.43 3.78, 0.28 2.08" stroke="#000000" stroke-width="0.5" fill="none"></path><path d="M-0.54 -0.02 C1.29 -0.49, 1.81 0.27, 3.78 0.19 M-0.08 0.06 C0.63 -0.16, 1.44 -0.25, 3.06 0.31 M2.5 0.5 C3.44 2.29, 3.51 4.35, 3.66 6.39 M3.22 0.06 C3.77 1.3, 3.5 3.09, 3.45 7.69 M3.61 7.94 C1.71 7.01, 0.77 7.62, -0.26 7.79 M3.09 7.2 C2.11 7.45, 0.93 7.56, 0.02 7.57 M1.33 6.45 C-0.95 6.2, -1.4 2.5, 0.38 1.37 M0.43 6.99 C-0.2 4.89, 0.78 1, -0.61 -0.58" stroke="#000000" stroke-width="1" fill="none"></path></g><g stroke-linecap="round" transform="translate(334.8914242983342 488.23554522895165) rotate(303.0460002072582 1.6257877608342142 3.6636887136292557)"><path d="M0 0 C0 0, 0 0, 0 0 M0 0 C0 0, 0 0, 0 0 M0.88 5.14 C1.65 3.02, 2.53 2.97, 3.65 1.72 M-0.53 6.02 C1.36 3.91, 3.38 2.67, 4.68 1.03 M0.15 7.45 C0.15 7.45, 0.15 7.45, 0.15 7.45 M0.15 7.45 C0.15 7.45, 0.15 7.45, 0.15 7.45 M3.24 5.48 C4.04 4.16, 2.8 4.04, 0.07 1.83 M3.92 6.15 C2.43 4.45, 2 3.9, 0.02 1.36" stroke="#000000" stroke-width="0.5" fill="none"></path><path d="M-0.02 0.58 C0.55 0.45, 2.32 0.59, 3.44 -0.29 M0.06 -0.2 C0.66 -0.2, 1.44 -0.17, 3.56 -0.31 M3.75 0.15 C4.08 2.63, 4.64 5.25, 2.31 5.9 M3.31 0.54 C3.21 2.38, 3.52 4.43, 3.62 7.65 M3.87 6.91 C1.96 7.12, 1.58 7.11, 0.47 7.85 M3.12 7.42 C2.3 7.45, 1.27 7.31, 0.24 7.22 M-0.88 6.36 C0.84 3.78, -0.89 3.46, 1.37 1.45 M-0.34 7.08 C0.62 6.11, -0.35 2.83, -0.58 0.37" stroke="#000000" stroke-width="1" fill="none"></path></g><g stroke-linecap="round" transform="translate(334.15493342541504 472.15898767668205) rotate(233.50826307900493 1.6257877608342142 3.6636887136292557)"><path d="M0 0 C0 0, 0 0, 0 0 M0 0 C0 0, 0 0, 0 0 M-1.52 6.57 C-0.6 4.4, 2.41 3.07, 4.94 2.47 M-0.64 6.22 C0.82 4.76, 3.14 3.39, 4.25 1.81 M0.15 7.45 C0.15 7.45, 0.15 7.45, 0.15 7.45 M0.15 7.45 C0.15 7.45, 0.15 7.45, 0.15 7.45 M4.01 6.41 C2.33 5.02, 1.87 3.97, -0.23 1.86 M4.68 5.24 C2.97 5.12, 2.45 3.93, -0.7 1.93" stroke="#000000" stroke-width="0.5" fill="none"></path><path d="M0.58 -0.46 C1.51 0.3, 2.78 0.19, 2.96 -0.23 M-0.2 -0.2 C0.59 -0.3, 1.42 0.3, 2.95 0.1 M3.4 0.78 C3.39 3.77, 3.59 3.93, 1.82 7.16 M3.79 -0.19 C3.51 3.04, 3.45 6.2, 3.58 7.36 M2.83 7.03 C2.13 7.7, 1.24 7.86, 0.53 7.64 M3.34 7.5 C2.68 7.58, 1.82 7.54, -0.11 7.29 M-0.96 8.15 C-1.55 4.32, 0.24 4.51, 1.45 -0.5 M-0.25 7.81 C0.65 5.31, -0.69 3.69, 0.37 -0.06" stroke="#000000" stroke-width="1" fill="none"></path></g><g stroke-linecap="round" transform="translate(845.3770141601562 195.60479736328125) rotate(0 101.5653076171875 56.09092712402344)"><path d="M0.22 -0.63 C46.8 -2.4, 95.4 -2.97, 201.7 -0.29 M-0.19 0.28 C69.32 2.24, 138.26 1.51, 202.52 0.69 M204.24 0.45 C204.49 24.69, 205.3 51.47, 203.69 111.12 M203.5 0.31 C203.57 31.45, 202.9 62.44, 202.78 112.67 M203.33 110.4 C143.2 112.58, 82.3 109.63, -0.85 113.69 M203.11 111.47 C135.73 112.81, 68.76 114.02, 0.6 111.6 M-0.4 112.76 C2.19 76.97, 1.42 36.62, 0.47 -1.31 M-0.17 112.85 C1.04 85.47, 0.46 58.32, 0.02 0.49" stroke="#000000" stroke-width="1" fill="none"></path></g><g transform="translate(850.3770141601562 239.1957244873047) rotate(0 96.5 12.5)"><text x="96.5" y="18" font-family="Virgil, Segoe UI Emoji" font-size="20px" fill="#000000" text-anchor="middle" style="white-space: pre;" direction="ltr">Broker</text></g><g stroke-linecap="round" transform="translate(846.0413208007812 331.93275451660156) rotate(0 101.5653076171875 56.09092712402344)"><path d="M-0.87 -0.72 C79.76 -0.66, 157.95 0.35, 203.81 0.55 M0.63 0.61 C43.58 -0.7, 84.79 0.12, 202.56 0.81 M203.48 -1.76 C204.91 42.51, 204.31 86.8, 202.62 111.5 M203.95 0.69 C203.7 42.16, 203.2 82.98, 203.13 111.71 M204.02 113.63 C154.66 108.87, 103.69 111.88, 0.51 112.77 M202.49 111.6 C127.78 111.37, 54.72 110.16, 0.26 111.37 M1.18 113.83 C0.64 76.23, 0.7 42.68, -1.15 -1.93 M-0.05 112.67 C-0.43 68.48, 0.21 24.23, 0.98 -0.08" stroke="#000000" stroke-width="1" fill="none"></path></g><g transform="translate(851.0413208007812 375.523681640625) rotate(0 96.5 12.5)"><text x="96.5" y="18" font-family="Virgil, Segoe UI Emoji" font-size="20px" fill="#000000" text-anchor="middle" style="white-space: pre;" direction="ltr">Connect</text></g><g stroke-linecap="round" transform="translate(847.1087036132812 59.08076477050781) rotate(0 101.5653076171875 56.09092712402344)"><path d="M0.07 -1.3 C52.37 0.44, 108.29 1.28, 201.52 -0.38 M0.88 -0.12 C66.74 -0.55, 134.12 -0.44, 203.95 0.5 M204.29 -1.42 C203.88 35.09, 202.81 71.64, 204.48 112.93 M203.28 0.92 C203.7 37.66, 204.04 73.88, 202.56 112.29 M203.95 110.68 C161.57 115.16, 122.23 114.24, 1.2 112.15 M202.28 112.81 C158.86 110.41, 113.64 110.19, 0.04 112 M0.41 110.33 C-0.19 73.97, -1.82 36.44, 1.88 -0.34 M-0.62 112.71 C0.07 71.49, 1.04 29.73, 0.79 -0.55" stroke="#000000" stroke-width="1" fill="none"></path></g><g transform="translate(852.1087036132812 102.67169189453125) rotate(0 96.5 12.5)"><text x="96.5" y="18" font-family="Virgil, Segoe UI Emoji" font-size="20px" fill="#000000" text-anchor="middle" style="white-space: pre;" direction="ltr">Zookeeper</text></g><g stroke-linecap="round" transform="translate(761.36669921875 13.74462890625) rotate(0 182.7216796875 263.26116943359375)"><path d="M-1 -0.2 C95.42 2.03, 188.76 1.39, 365.84 0.88 M-0.42 0.48 C134.23 0.88, 269.84 0.66, 365.58 0.11 M365.67 -0.43 C366.45 111.43, 367.2 223.69, 365.69 527.18 M365.3 0.19 C365.75 193.92, 365.53 388.25, 365.04 526.72 M364.85 527.58 C226.69 525.01, 88.06 524.58, -0.99 525.63 M365.86 526.11 C279.81 527.56, 193.85 528, 0.18 526.89 M0.19 526 C-0.89 324.48, 0.32 123.85, 0.54 -0.04 M0.01 526.72 C1.71 343.07, 1.63 159.46, 0.22 -0.34" stroke="#000000" stroke-width="1" fill="none"></path></g><g transform="translate(790.2139892578125 493.22918701171875) rotate(0 26 12.5)"><text x="0" y="18" font-family="Virgil, Segoe UI Emoji" font-size="20px" fill="#000000" text-anchor="start" style="white-space: pre;" direction="ltr">DC-2</text></g><g stroke-linecap="round" transform="translate(1113.0957583165368 480.81307643987657) rotate(0 0.010594062953600769 0.010594062953600769)"><path d="M0 0 C0 0, 0.01 0, 0.02 0 M0 0 C0.01 0, 0.01 0, 0.02 0 M0.02 0 C0.02 0.01, 0.02 0.01, 0.02 0.02 M0.02 0 C0.02 0.01, 0.02 0.02, 0.02 0.02 M0.02 0.02 C0.02 0.02, 0.01 0.02, 0 0.02 M0.02 0.02 C0.01 0.02, 0.01 0.02, 0 0.02 M0 0.02 C0 0.02, 0 0.01, 0 0 M0 0.02 C0 0.01, 0 0.01, 0 0" stroke="#000000" stroke-width="1" fill="none"></path></g><g stroke-linecap="round" transform="translate(1061.0053819819473 476.5058623756263) rotate(0 12.46837129773985 12.227566565207155)"><path d="M3.99 6.12 C3.99 6.12, 3.99 6.12, 3.99 6.12 M3.99 6.12 C3.99 6.12, 3.99 6.12, 3.99 6.12 M3.72 11.71 C5.8 9.95, 7.85 10.11, 12.4 3.03 M3.34 15.1 C5.34 12.9, 9.34 6.34, 13.41 0.26 M-1.28 17.42 C9.5 19.34, 9.73 13, 16.26 0.79 M-0.3 20.52 C6.38 16.37, 8.26 13.56, 17.31 2.48 M1.5 23.1 C9.67 15.7, 14.21 15.59, 18.2 7.31 M3.81 23.96 C9.63 19.08, 14.92 10.39, 20.27 4.51 M9.94 25.18 C11.28 20.65, 18.33 18.29, 20.44 7.52 M10.41 24.39 C15.79 18.82, 18.31 13.13, 24.45 9.44 M8.12 28.58 C18.36 18.81, 18.27 15.08, 26.52 14.46 M11.14 27.21 C15.98 21.4, 19.12 18.09, 23.83 12 M1.72 20.89 C1.72 20.89, 1.72 20.89, 1.72 20.89 M1.72 20.89 C1.72 20.89, 1.72 20.89, 1.72 20.89 M9.13 25.08 C8.99 22.74, 2.92 21.61, -0.97 14.25 M8.96 22.62 C7.6 19.3, 4 18.29, -0.55 13.6 M14.47 18.87 C9.69 21.61, 4.81 16.98, 0.84 13.23 M16.5 23.41 C11.11 20.17, 7.75 13.82, -0.24 9.1 M18.39 24.02 C19.44 20.02, 13.18 13.43, 2.34 5.02 M20.7 21.6 C16.68 18.55, 10 13.81, 4.66 6.04 M19.75 21.7 C17.53 14.25, 10.89 9.37, 4.29 3.01 M24.03 20.36 C19.99 14.54, 15.74 12.54, 4.43 1.7 M26.11 12.46 C16.48 8.14, 11.59 0.34, 6.46 1.84 M28.11 16.99 C19.87 11.33, 15.44 6.57, 10.07 -0.15" stroke="#000000" stroke-width="0.5" fill="none"></path><path d="M4.12 5.97 C5.98 3.78, 9.81 0.46, 11.96 -0.03 C14.12 -0.52, 15.27 1.44, 17.07 3.03 C18.88 4.63, 21.28 7.19, 22.79 9.56 C24.3 11.92, 26.68 14.99, 26.12 17.23 C25.56 19.47, 22.3 21.63, 19.42 23.01 C16.54 24.38, 11.81 25.83, 8.86 25.47 C5.9 25.12, 3.36 23.12, 1.7 20.88 C0.05 18.64, -2.47 15.26, -1.06 12.02 C0.35 8.78, 6.56 2.93, 10.15 1.46 C13.73 -0.01, 20.04 3, 20.45 3.2 M15.76 0.12 C17.6 0.22, 18.81 0.93, 20.39 2.4 C21.98 3.87, 24.71 5.6, 25.26 8.91 C25.82 12.22, 25.22 20.13, 23.73 22.25 C22.24 24.38, 19.44 21.14, 16.34 21.68 C13.23 22.23, 7.53 26.17, 5.1 25.51 C2.67 24.85, 2.14 20.57, 1.73 17.71 C1.32 14.84, 2.34 11.31, 2.65 8.3 C2.95 5.29, 1.96 1.49, 3.58 -0.35 C5.19 -2.18, 10.22 -3.16, 12.35 -2.7 C14.48 -2.25, 16.4 1.57, 16.37 2.39" stroke="#000000" stroke-width="1" fill="none"></path></g><g stroke-linecap="round" transform="translate(1065.4998260284588 480.95691303099284) rotate(0 8.170847985190335 7.583097495341576)"><path d="M10.92 -1.54 C12.42 -1.68, 14.76 0.76, 15.46 2.1 C16.17 3.45, 15.1 4.75, 15.14 6.52 C15.17 8.3, 16.53 11.33, 15.67 12.75 C14.81 14.17, 11.9 15.12, 10 15.06 C8.1 15.01, 5.72 13.37, 4.27 12.42 C2.81 11.47, 1.67 10.42, 1.27 9.37 C0.87 8.33, 1.26 7.35, 1.85 6.16 C2.43 4.96, 2.98 2.72, 4.76 2.2 C6.54 1.67, 11.01 2.53, 12.52 3.01 C14.03 3.5, 13.83 5.25, 13.83 5.11 M12.98 -0.04 C14.74 1.26, 18.66 8, 18.99 10.18 C19.32 12.35, 16.05 11.83, 14.98 13.02 C13.91 14.21, 14.76 17.17, 12.56 17.31 C10.37 17.46, 4.1 15.11, 1.83 13.9 C-0.44 12.68, -0.85 11.33, -1.05 10.02 C-1.25 8.7, 0.13 7.97, 0.63 6 C1.13 4.03, 0.05 -1.25, 1.96 -1.78 C3.88 -2.32, 10.15 1.73, 12.1 2.8 C14.05 3.86, 13.41 4.88, 13.65 4.6 C13.89 4.31, 13.77 1.29, 13.54 1.07" stroke="none" stroke-width="0" fill="#ffffff"></path><path d="M7.81 2.14 C9.27 1.26, 10.13 -0.7, 11.71 -0.48 C13.28 -0.26, 16.28 1.4, 17.28 3.43 C18.29 5.47, 18.36 9.9, 17.75 11.74 C17.14 13.57, 15.36 14.18, 13.64 14.45 C11.91 14.71, 9.13 13.87, 7.41 13.34 C5.68 12.81, 4.41 12.35, 3.27 11.26 C2.13 10.17, 0.91 8.31, 0.56 6.81 C0.22 5.31, -0.17 3.26, 1.2 2.25 C2.57 1.25, 7.48 0.85, 8.79 0.78 C10.1 0.7, 9.04 1.74, 9.06 1.8 M14.63 1.55 C15.62 2.53, 15.18 6.13, 14.61 8.24 C14.04 10.34, 11.7 12.82, 11.21 14.2 C10.72 15.57, 13.32 16.75, 11.67 16.48 C10.01 16.2, 2.72 13.52, 1.26 12.56 C-0.2 11.6, 2.86 11.71, 2.91 10.73 C2.97 9.75, 1.37 8.73, 1.61 6.69 C1.85 4.65, 3.31 -0.1, 4.34 -1.51 C5.36 -2.92, 6.53 -2.87, 7.78 -1.78 C9.03 -0.68, 10.35 4.59, 11.81 5.06 C13.27 5.54, 16.02 1.81, 16.53 1.09" stroke="#ffffff" stroke-width="1" fill="none"></path></g><g stroke-linecap="round" transform="translate(1062.922402897361 449.6348234677803) rotate(0 9.8008535099151 9.611567206861707)"><path d="M0.35 4.28 C0.35 4.28, 0.35 4.28, 0.35 4.28 M0.35 4.28 C0.35 4.28, 0.35 4.28, 0.35 4.28 M-0.69 11.52 C0.21 12.18, 1.76 9.09, 5.51 0.95 M-0.99 13.36 C2.58 7.72, 4.62 4.5, 6.57 3.19 M3.7 19.72 C3.87 14.21, 8.04 4.85, 11.08 2.1 M1.37 16 C3.13 13.75, 7.73 7.86, 11.66 0.98 M3.8 16.39 C10.85 13.77, 12.81 7.83, 20.1 4.69 M2.37 21.53 C6.91 13.85, 11.98 8.14, 18.07 2.07 M6.36 20.61 C12.05 18.57, 13.01 10.75, 21.33 5.06 M8.81 20.26 C9.87 16.63, 16.26 12.16, 19.25 8.15 M12.96 19.69 C12.79 18.09, 17.16 17.43, 18.08 13.56 M12.36 20.35 C14.7 17.89, 16.43 15.45, 17.99 12.67 M2.35 18.64 C2.35 18.64, 2.35 18.64, 2.35 18.64 M2.35 18.64 C2.35 18.64, 2.35 18.64, 2.35 18.64 M10.47 20.98 C4.13 19.14, 3.06 14.89, -0.66 10.16 M9.85 18.51 C5.85 16.67, 2.31 13.08, -1.1 12.07 M11.24 19.17 C5.71 13.79, 4.13 12.46, 0.02 4.13 M12.54 18.57 C9.68 13.48, 5.32 11.34, 0.87 7.28 M22.44 19.62 C16.15 13.04, 6.52 5.89, 0.64 5.25 M19.17 17.91 C13.1 13.67, 11.52 9.16, 0.8 4.29 M17.63 11.4 C12.83 7.99, 11.55 6.36, 4.5 -2.47 M19.39 11.32 C14.52 8.8, 7.44 1.83, 7.68 2.23 M16.42 4.73 C15.83 2.66, 13.71 3.21, 12.24 -0.09 M17.21 5.5 C15.71 3.93, 13.9 1.56, 12.1 -0.53" stroke="#000000" stroke-width="0.5" fill="none"></path><path d="M14.81 0.2 C16.29 0.72, 16.2 3.98, 16.76 6.08 C17.33 8.17, 17.98 10.8, 18.22 12.76 C18.46 14.73, 19.46 16.74, 18.18 17.88 C16.91 19.01, 13.27 19.49, 10.58 19.56 C7.88 19.64, 3.96 19.57, 2 18.33 C0.04 17.1, -0.89 14.45, -1.21 12.15 C-1.53 9.86, -1.02 6.26, 0.09 4.57 C1.2 2.89, 2.8 2.43, 5.46 2.05 C8.12 1.67, 13.81 1.8, 16.04 2.28 C18.26 2.76, 18.97 4.6, 18.8 4.94 M5.04 -1.14 C6.69 -2.42, 11.03 -3.8, 13.49 -2.41 C15.95 -1.01, 18.57 5.37, 19.79 7.23 C21.01 9.09, 21.68 6.72, 20.83 8.76 C19.97 10.81, 16.37 17.6, 14.67 19.51 C12.97 21.42, 12.18 20.65, 10.65 20.21 C9.13 19.78, 7.65 18.76, 5.5 16.92 C3.35 15.07, -1.2 11.62, -2.22 9.12 C-3.25 6.63, -2.44 3.05, -0.64 1.96 C1.16 0.87, 7.69 2.65, 8.56 2.59 C9.43 2.53, 5.3 1.78, 4.56 1.61" stroke="#000000" stroke-width="1" fill="none"></path></g><g stroke-linecap="round" transform="translate(1066.6092373457968 453.5939461315461) rotate(0 5.933450560153005 5.741833345579721)"><path d="M10.75 0.53 C11.37 1.32, 10.41 2.13, 10.71 3.52 C11.01 4.91, 12.9 7.58, 12.55 8.87 C12.2 10.15, 9.99 11.13, 8.6 11.25 C7.21 11.37, 5.38 10.14, 4.19 9.6 C3.01 9.06, 2.01 8.6, 1.51 8.01 C1.02 7.41, 1.07 6.94, 1.24 6.02 C1.42 5.1, 1.83 3.31, 2.55 2.49 C3.27 1.68, 4.32 0.38, 5.58 1.13 C6.84 1.88, 9.64 5.47, 10.1 6.99 C10.57 8.51, 7.91 10.43, 8.38 10.23 M11.47 3.35 C12.89 4.41, 11.5 3.19, 12 4.28 C12.5 5.37, 15.36 8.87, 14.48 9.89 C13.59 10.91, 8.53 10.18, 6.69 10.4 C4.85 10.62, 4.29 11.21, 3.44 11.22 C2.59 11.23, 2.52 11.85, 1.6 10.48 C0.68 9.11, -2.47 3.96, -2.09 3.01 C-1.71 2.07, 2.85 4.97, 3.87 4.81 C4.9 4.64, 3.36 2.98, 4.06 2.02 C4.76 1.05, 7.54 -0.8, 8.08 -0.98 C8.62 -1.17, 7.33 1.01, 7.29 0.92" stroke="none" stroke-width="0" fill="#ffffff"></path><path d="M9.48 0 C10.48 0.15, 12.76 1.73, 13.33 3.48 C13.89 5.22, 13.58 9.11, 12.86 10.46 C12.15 11.81, 10.5 11.77, 9.06 11.59 C7.62 11.41, 5.42 10.11, 4.23 9.37 C3.05 8.64, 2.54 8.13, 1.94 7.18 C1.35 6.23, 0.7 4.75, 0.65 3.66 C0.6 2.57, 0.51 1.14, 1.62 0.65 C2.73 0.17, 5.52 -0.13, 7.3 0.74 C9.08 1.62, 11.38 4.69, 12.29 5.9 C13.2 7.1, 12.67 8.31, 12.78 7.95 M6.98 0.99 C7.59 1.96, 7.27 3.76, 8.44 5.07 C9.61 6.38, 14.31 8.19, 14 8.87 C13.69 9.56, 7.63 8.61, 6.57 9.18 C5.51 9.74, 8.33 11.89, 7.66 12.29 C6.99 12.69, 3.81 13.05, 2.53 11.6 C1.24 10.15, 0.52 5.48, -0.05 3.59 C-0.62 1.7, -1.22 0.49, -0.91 0.27 C-0.59 0.04, -0.09 2.5, 1.84 2.23 C3.78 1.97, 9.44 -0.61, 10.72 -1.3 C11.99 -2, 9.86 -2.25, 9.5 -1.94" stroke="#ffffff" stroke-width="1" fill="none"></path></g><g stroke-linecap="round" transform="translate(1064.0075376313227 507.91114373051414) rotate(0 9.8008535099151 9.611567206861707)"><path d="M-0.73 7.32 C-0.73 7.32, -0.73 7.32, -0.73 7.32 M-0.73 7.32 C-0.73 7.32, -0.73 7.32, -0.73 7.32 M-0.63 14.52 C0.32 12.45, 1.32 8.44, 7.16 7.74 M0.35 12.27 C1.43 10.22, 3.33 8.58, 5.86 5.54 M1.18 18.51 C3.27 11.56, 4.74 10.96, 12.44 0.45 M1.07 17.53 C4.94 12.45, 6.71 8.63, 14.32 1.95 M6.44 20.14 C6.74 16.43, 13.9 13.51, 15.83 2.78 M4.11 18.8 C9.39 12.69, 13.2 9.33, 17.49 5.89 M8.24 25.06 C9.09 17.06, 17.56 11.34, 19.97 12.17 M5.97 23.03 C11.85 19.12, 14.34 15.48, 19.2 7.92 M13.82 19.33 C16.78 19, 17.52 16.27, 20.88 13.89 M14.97 19.43 C15.66 18.37, 17.09 16.1, 19.35 14.64 M5.08 20.07 C5.08 20.07, 5.08 20.07, 5.08 20.07 M5.08 20.07 C5.08 20.07, 5.08 20.07, 5.08 20.07 M8.28 20.77 C7.14 17.35, 4.13 13.64, 4.27 10.57 M10 19.42 C8.18 17.36, 5.3 16.2, 3.03 12.25 M11.47 18.67 C11.8 19.08, 7.86 9.72, -0.75 7.98 M15.04 16.68 C8.43 13.09, 4.36 9.67, 1.1 4.31 M21.17 16.43 C11.36 9.55, 5.88 9.3, 0.95 2.07 M16.85 16.03 C14.79 11.34, 8.1 9.93, 1.77 0.59 M18.13 11.73 C14.9 8.27, 9.84 1.02, 11.12 2.32 M22.29 14.38 C14.74 6.93, 12.79 5.72, 6.82 1.07" stroke="#000000" stroke-width="0.5" fill="none"></path><path d="M14.64 3.71 C15.72 5.2, 17.22 7.66, 18.14 9.61 C19.07 11.56, 20.92 13.86, 20.19 15.41 C19.45 16.97, 16.29 18.2, 13.73 18.94 C11.17 19.68, 7.12 20.49, 4.82 19.84 C2.53 19.2, 0.92 17.14, -0.04 15.09 C-1 13.04, -1.4 9.46, -0.94 7.56 C-0.48 5.66, 0.82 4.85, 2.72 3.69 C4.61 2.53, 7.32 -0.7, 10.41 0.63 C13.49 1.95, 20.43 8.49, 21.22 11.63 C22 14.77, 15.66 19.55, 15.11 19.48 M10.08 -2.99 C12.56 -2.43, 15.77 3.24, 17.56 4.63 C19.35 6.03, 20.93 3.32, 20.82 5.37 C20.71 7.41, 18.02 14.53, 16.89 16.9 C15.76 19.28, 15.46 19.33, 14.06 19.62 C12.67 19.9, 11.02 19.82, 8.5 18.61 C5.99 17.39, 0.69 14.55, -1.03 12.31 C-2.75 10.07, -2.92 6.49, -1.82 5.16 C-0.72 3.82, 3.96 5.01, 5.56 4.3 C7.16 3.58, 7.54 1.52, 7.78 0.86 C8.03 0.19, 6.81 0.15, 7.04 0.31" stroke="#000000" stroke-width="1" fill="none"></path></g><g stroke-linecap="round" transform="translate(1067.7213056394032 511.9194897963903) rotate(0 6.1071255826926745 5.75437138196628)"><path d="M0.07 0.36 C0.99 -0.46, 4.92 -0.22, 6.61 -0.19 C8.3 -0.17, 9.2 0.13, 10.22 0.53 C11.23 0.94, 12.23 1.09, 12.69 2.25 C13.16 3.4, 13.38 5.75, 13 7.46 C12.62 9.18, 11.72 11.62, 10.42 12.55 C9.12 13.47, 6.85 13.33, 5.21 13.04 C3.56 12.74, 1.7 11.86, 0.55 10.77 C-0.6 9.69, -2.43 8.35, -1.7 6.51 C-0.97 4.66, 2.68 0.64, 4.93 -0.3 C7.18 -1.24, 11.53 0.88, 11.8 0.87 M1.82 2.8 C2.57 1.77, 6.96 2.79, 7.78 2.39 C8.59 2, 6.28 0.23, 6.69 0.4 C7.09 0.57, 9.32 2.06, 10.22 3.41 C11.11 4.76, 12.56 7.78, 12.06 8.51 C11.57 9.25, 7.96 6.88, 7.25 7.82 C6.54 8.76, 8.87 13.52, 7.8 14.14 C6.73 14.76, 2.24 13.17, 0.81 11.52 C-0.61 9.87, -0.57 5.78, -0.73 4.24 C-0.9 2.71, -0.42 3.08, -0.17 2.31 C0.07 1.53, 0.58 -0.7, 0.74 -0.42" stroke="none" stroke-width="0" fill="#ffffff"></path><path d="M12.74 1.29 C13.84 2.75, 14.2 6.72, 13.98 8.23 C13.76 9.75, 12.62 10.12, 11.43 10.37 C10.24 10.62, 8.13 9.97, 6.83 9.74 C5.53 9.51, 4.65 9.58, 3.64 8.97 C2.62 8.35, 1.31 7.11, 0.73 6.04 C0.14 4.96, -0.59 3.31, 0.12 2.51 C0.84 1.71, 3.63 1.33, 5.02 1.22 C6.41 1.12, 7.16 0.61, 8.46 1.87 C9.77 3.13, 12.95 7.31, 12.85 8.79 C12.76 10.26, 8.06 10.79, 7.9 10.7 M0.35 2.12 C2.11 1.7, 8.55 1.73, 9.91 1.53 C11.26 1.32, 7.66 -0.03, 8.46 0.87 C9.27 1.77, 14.22 5.12, 14.74 6.92 C15.25 8.72, 12.88 11.32, 11.56 11.69 C10.24 12.05, 8.61 9.6, 6.79 9.09 C4.97 8.58, 2.19 8.55, 0.63 8.62 C-0.93 8.7, -2.88 10.72, -2.57 9.54 C-2.26 8.35, 1.37 3.47, 2.5 1.54 C3.63 -0.4, 4.03 -1.85, 4.2 -2.08 C4.36 -2.32, 3.46 -0.71, 3.51 0.12" stroke="#ffffff" stroke-width="1" fill="none"></path></g><g stroke-linecap="round" transform="translate(1088.3942711825196 462.1430809284989) rotate(0 9.8008535099151 9.611567206861707)"><path d="M3.97 4.77 C3.97 4.77, 3.97 4.77, 3.97 4.77 M3.97 4.77 C3.97 4.77, 3.97 4.77, 3.97 4.77 M2.4 12.94 C3.91 7.94, 8.41 9.45, 9.96 4.77 M2.96 11.41 C5.48 9.07, 8.48 5.32, 8.67 5.23 M1.9 16.27 C5.69 13, 11.27 4.35, 13.41 6.43 M2.85 17.79 C5.07 13.36, 10.83 8.81, 14.62 5.17 M5.78 20.26 C11.74 18.52, 11.36 10.58, 21.3 4.21 M7.75 17.59 C12.18 13.69, 17.56 8.84, 19.71 4.23 M11.23 17.96 C18.25 12.99, 19.7 14.38, 21.21 10.19 M14.03 19.3 C16.63 15.81, 19.21 11.05, 22.31 9.03 M1.3 16.8 C1.3 16.8, 1.3 16.8, 1.3 16.8 M1.3 16.8 C1.3 16.8, 1.3 16.8, 1.3 16.8 M7.42 16.03 C4.23 13.92, 2.52 12.3, -0.78 11.13 M6.82 17.14 C5.12 15.97, 4.47 13.71, 1.49 11.49 M14.06 18.29 C9.84 13.03, 9 7.69, 1.78 8.28 M14.49 17.64 C10.7 16.45, 10.04 12.77, 1.51 6.71 M16.64 17.35 C11.76 7.98, 7.1 8.83, 6.9 3.12 M15.74 13.87 C12.1 10.67, 7.87 5.03, 5.58 5.37 M18.44 10.11 C14.05 9.85, 9.16 3.72, 7.91 2.41 M20.17 10.87 C14.62 9.27, 10.4 2.91, 9.16 0.89 M19.05 6.1 C17.63 3.64, 17.95 3.95, 15.62 2.12 M19.09 5.64 C18.91 5.76, 16.33 3.73, 13.75 1.13" stroke="#000000" stroke-width="0.5" fill="none"></path><path d="M7.16 1.89 C9.65 1.43, 14.77 1.73, 16.84 2.58 C18.9 3.43, 19.52 5.03, 19.57 7 C19.62 8.96, 18.23 12.43, 17.13 14.38 C16.03 16.32, 14.71 17.97, 12.97 18.66 C11.23 19.35, 8.62 18.79, 6.69 18.5 C4.76 18.2, 2.38 18.31, 1.39 16.87 C0.4 15.44, 0.29 11.95, 0.75 9.89 C1.21 7.84, 1.14 4.99, 4.16 4.55 C7.19 4.1, 16.96 5.09, 18.9 7.22 C20.84 9.36, 15.99 17.73, 15.79 17.34 M5.98 3.96 C7.76 2.87, 10.8 -2.73, 12.4 -2.45 C13.99 -2.18, 14.22 3.51, 15.56 5.61 C16.9 7.7, 19.77 8.5, 20.45 10.12 C21.13 11.75, 21.42 14.24, 19.62 15.36 C17.81 16.48, 12.32 16.84, 9.61 16.83 C6.9 16.83, 4.5 15.57, 3.37 15.33 C2.25 15.08, 3.69 16.64, 2.87 15.36 C2.06 14.08, -1.35 9.92, -1.53 7.63 C-1.71 5.35, 0.86 2.5, 1.78 1.66 C2.7 0.81, 3.15 2.04, 3.99 2.57" stroke="#000000" stroke-width="1" fill="none"></path></g><g stroke-linecap="round" transform="translate(1092.1368302371181 465.8765189373071) rotate(0 6.1071255826926745 6.052498024935346)"><path d="M4.28 0.9 C5.64 0.4, 6.57 0.01, 7.72 -0.08 C8.88 -0.18, 10.29 -0.55, 11.21 0.35 C12.12 1.24, 13.04 3.48, 13.21 5.3 C13.38 7.13, 13.14 9.93, 12.24 11.28 C11.33 12.63, 9.37 13.16, 7.77 13.4 C6.18 13.64, 4.14 13.42, 2.67 12.73 C1.21 12.05, -0.51 10.67, -1.02 9.28 C-1.53 7.9, -1.62 6.03, -0.41 4.4 C0.81 2.78, 4.88 0.42, 6.26 -0.44 C7.64 -1.31, 8.45 -1.28, 7.89 -0.78 M13.73 4.45 C14.12 5.2, 10.68 4.92, 9.92 5.8 C9.17 6.69, 9.65 8.57, 9.22 9.77 C8.78 10.97, 8.67 13.21, 7.3 12.99 C5.92 12.78, 1.68 8.83, 0.95 8.47 C0.22 8.1, 3.13 11.22, 2.91 10.79 C2.69 10.36, -0.28 7.83, -0.38 5.88 C-0.47 3.93, 1.32 0.04, 2.34 -0.91 C3.35 -1.85, 4.42 0.13, 5.72 0.19 C7.02 0.26, 9.48 -1.1, 10.14 -0.52 C10.81 0.06, 9.77 3.43, 9.72 3.67" stroke="none" stroke-width="0" fill="#ffffff"></path><path d="M4.08 3.17 C4.93 2.63, 6.28 1.02, 7.34 0.45 C8.41 -0.12, 9.48 -0.8, 10.47 -0.26 C11.46 0.28, 13.06 2.31, 13.3 3.7 C13.53 5.1, 12.85 6.89, 11.89 8.12 C10.93 9.35, 8.67 10.38, 7.56 11.1 C6.46 11.82, 6.29 12.52, 5.26 12.44 C4.23 12.36, 2.01 11.82, 1.38 10.61 C0.76 9.4, 0.44 7.06, 1.49 5.18 C2.54 3.29, 6.2 -0.02, 7.7 -0.69 C9.19 -1.36, 10.91 1.12, 10.45 1.14 M9.2 1.41 C10.52 0.99, 7.08 -0.4, 8 0.45 C8.92 1.3, 14.06 4.66, 14.73 6.52 C15.4 8.39, 13.22 11.14, 12.02 11.64 C10.81 12.15, 9.29 9.91, 7.5 9.56 C5.7 9.21, 2.89 9.35, 1.25 9.52 C-0.39 9.69, -2.49 11.78, -2.32 10.59 C-2.15 9.4, 1.28 4.43, 2.26 2.39 C3.24 0.34, 2.8 -1.2, 3.58 -1.69 C4.35 -2.18, 6.22 -1.17, 6.9 -0.57 C7.57 0.04, 7.26 1.63, 7.64 1.93" stroke="#ffffff" stroke-width="1" fill="none"></path></g><g stroke-linecap="round" transform="translate(1090.1792452796792 492.1999802105963) rotate(0 9.8008535099151 9.611567206861707)"><path d="M1.21 7.68 C1.21 7.68, 1.21 7.68, 1.21 7.68 M1.21 7.68 C1.21 7.68, 1.21 7.68, 1.21 7.68 M-1.32 11.74 C7.69 12.73, 9.6 5.46, 14.77 4.57 M0.18 14.91 C3.36 10.89, 3.71 10.65, 12.97 1.57 M1.45 17.58 C7.08 8.96, 11.2 8.95, 15.14 0.97 M2.02 16.46 C9.18 10.47, 12.56 7.36, 14.21 4.14 M9.05 21.55 C9.94 12.21, 16.57 9.45, 22.94 4.43 M7.12 19.07 C10.66 16.48, 13.28 11.48, 19.78 5.45 M14.42 17.31 C16.4 18.05, 17.87 13.89, 20.83 7.68 M12.73 19.82 C15.18 15.09, 17.94 13.49, 19.54 8.75 M0.18 15.04 C0.18 15.04, 0.18 15.04, 0.18 15.04 M0.18 15.04 C0.18 15.04, 0.18 15.04, 0.18 15.04 M9.18 17.44 C7.63 15.75, 3.99 15.16, -0.84 12.29 M9.89 19.85 C8.59 15.96, 5.96 14.35, 1.31 8.87 M14.06 15.81 C12.76 9.85, 4.07 9.67, -0.17 6.47 M13.52 18.16 C11.3 13.01, 4.86 8.96, 3.4 4.95 M17.03 11.79 C12.65 13.42, 12.1 6.92, 7.95 3.68 M17.93 15.13 C15.54 10.78, 13.03 10.92, 6.23 4.6 M18.71 13.14 C14.17 7.04, 11.93 5.04, 9.44 -1.88 M18.84 12.37 C14.65 5.88, 13.08 3.43, 7.46 -1.21 M20.5 4.95 C21.4 5.69, 19.05 3.78, 11.85 0.19 M22.75 8.27 C17.64 3.89, 14.01 0.29, 11.96 -1.11" stroke="#000000" stroke-width="0.5" fill="none"></path><path d="M18.48 3.85 C20.28 4.89, 20.39 6.95, 20 9.01 C19.61 11.06, 17.63 14.45, 16.14 16.19 C14.64 17.92, 12.94 19.15, 11.03 19.42 C9.12 19.7, 6.49 18.57, 4.7 17.85 C2.91 17.14, 0.89 16.8, 0.29 15.13 C-0.32 13.46, 0.14 9.85, 1.05 7.86 C1.96 5.87, 4.09 4.18, 5.72 3.18 C7.36 2.18, 8.92 1.52, 10.84 1.86 C12.76 2.2, 15.94 4.68, 17.25 5.23 C18.56 5.78, 18.91 5.18, 18.7 5.14 M2.95 1.86 C3.44 0.17, 3.58 2.97, 5.5 2.96 C7.42 2.94, 11.97 1.38, 14.48 1.75 C16.98 2.12, 20.11 3.87, 20.53 5.18 C20.95 6.49, 18.11 8.07, 16.98 9.61 C15.85 11.16, 14.68 12.51, 13.75 14.44 C12.82 16.38, 13.5 20.71, 11.4 21.22 C9.31 21.74, 3.5 19.22, 1.16 17.5 C-1.18 15.79, -2.6 12.95, -2.63 10.91 C-2.67 8.87, -0.06 5.92, 0.97 5.26 C1.99 4.6, 3.17 7.48, 3.51 6.96" stroke="#000000" stroke-width="1" fill="none"></path></g><g stroke-linecap="round" transform="translate(1094.2905154783848 496.1368130318974) rotate(0 5.906517000507847 5.851889442750576)"><path d="M2.39 2.44 C2.85 1.26, 4.13 -0.73, 5.3 -1.04 C6.48 -1.35, 8.26 -0.49, 9.41 0.56 C10.57 1.62, 11.88 3.92, 12.22 5.31 C12.56 6.7, 12.12 7.83, 11.46 8.9 C10.79 9.97, 9.52 11.17, 8.24 11.71 C6.95 12.25, 4.9 12.47, 3.73 12.13 C2.56 11.79, 1.53 10.75, 1.21 9.69 C0.88 8.63, 1.49 7.26, 1.76 5.75 C2.03 4.25, 2.96 1.17, 2.84 0.67 C2.72 0.17, 0.83 2.47, 1.02 2.76 M4.77 -0.16 C5.21 -0.41, 7.76 0.81, 8.96 1.99 C10.16 3.18, 12.08 6.14, 11.96 6.95 C11.85 7.77, 8.7 5.66, 8.26 6.89 C7.83 8.12, 10.38 13.34, 9.35 14.32 C8.32 15.3, 3.72 14.15, 2.09 12.77 C0.46 11.39, 0.1 7.52, -0.42 6.03 C-0.95 4.54, -1.54 5.17, -1.07 3.83 C-0.6 2.5, 1.22 -1.59, 2.41 -1.98 C3.6 -2.36, 5.38 1.44, 6.07 1.52 C6.75 1.61, 6.04 -1.35, 6.53 -1.47" stroke="none" stroke-width="0" fill="#ffffff"></path><path d="M3.48 1.61 C4.16 0.24, 5.31 -1.51, 6.58 -1.75 C7.85 -1.99, 10.15 -0.81, 11.1 0.17 C12.06 1.14, 12.46 2.72, 12.33 4.09 C12.2 5.46, 10.89 7.02, 10.33 8.37 C9.77 9.73, 9.99 11.45, 8.97 12.2 C7.95 12.95, 5.37 13.44, 4.21 12.87 C3.05 12.3, 2.38 10.3, 2.01 8.79 C1.64 7.28, 1.19 5.29, 1.99 3.82 C2.78 2.35, 5.72 0.63, 6.76 -0.01 C7.8 -0.65, 8.37 0.22, 8.25 -0.02 M6.21 -0.71 C7.32 -0.29, 12.89 2.84, 13.94 4.58 C14.99 6.31, 13.33 9.07, 12.5 9.72 C11.66 10.37, 10.53 8.48, 8.93 8.47 C7.33 8.47, 4.59 9.12, 2.87 9.68 C1.16 10.24, -1.22 12.77, -1.36 11.83 C-1.5 10.88, 1.43 6.09, 2.02 4.03 C2.6 1.98, 1.67 0.25, 2.15 -0.51 C2.62 -1.26, 3.61 -0.99, 4.86 -0.49 C6.1 0.01, 8.56 2.17, 9.6 2.49 C10.65 2.81, 11.8 1.52, 11.14 1.43" stroke="#ffffff" stroke-width="1" fill="none"></path></g><g stroke-linecap="round" transform="translate(1071.21611386539 468.8279913303013) rotate(0 1.6257877608342142 3.8330669918154285)"><path d="M0 0 C0 0, 0 0, 0 0 M0 0 C0 0, 0 0, 0 0 M-0.67 5.45 C0.05 6.04, 0.61 3.84, 4.67 -0.04 M-0.11 6.78 C1.76 4.37, 2.5 3.01, 4.17 1.76 M-0.02 7.65 C-0.02 7.65, -0.02 7.65, -0.02 7.65 M-0.02 7.65 C-0.02 7.65, -0.02 7.65, -0.02 7.65 M4.29 6.52 C3.38 5.67, 1.52 4.85, 0.74 1.92 M4.46 5.78 C3.3 5.71, 2.33 4.47, 0.44 2.25" stroke="#000000" stroke-width="0.5" fill="none"></path><path d="M-0.42 0.59 C1.53 0.31, 2.01 0.06, 2.68 0.38 M-0.08 -0.11 C0.97 0.16, 1.59 0.3, 3.47 0.05 M3.24 -0.72 C2.32 3.17, 1.67 6.77, 4.49 8.37 M3.47 0.25 C3.69 1.64, 2.57 2.76, 2.75 6.94 M3.44 7.08 C2.07 7.49, 1.03 8.01, 0.53 7.8 M3.06 7.35 C2.88 7.57, 2.12 7.61, 0.16 7.46 M1.51 7.54 C1.2 4.13, 0.83 0.96, 0.34 -0.42 M0.39 7.3 C-0.83 6.17, 0.54 3.45, 0.15 0.75" stroke="#000000" stroke-width="1" fill="none"></path></g><g stroke-linecap="round" transform="translate(1071.9811187793846 500.7798021790393) rotate(0 1.6257877608342142 3.6636887136292557)"><path d="M0 0 C0 0, 0 0, 0 0 M0 0 C0 0, 0 0, 0 0 M-1.21 5.66 C2.37 3.18, 3.15 2.85, 3.17 1.87 M0.12 6.81 C1.02 4.26, 2.95 2.93, 4.97 1.01 M0.15 7.45 C0.15 7.45, 0.15 7.45, 0.15 7.45 M0.15 7.45 C0.15 7.45, 0.15 7.45, 0.15 7.45 M4.98 5.88 C3.11 3.3, 1.43 3.56, -1.13 0.78 M4.09 5.73 C3.56 4.51, 1.67 3.77, -0.74 1.77" stroke="#000000" stroke-width="0.5" fill="none"></path><path d="M0.59 0.6 C1.12 0.19, 1.62 -0.53, 3.63 -0.46 M-0.11 0.22 C1.19 0.12, 2.4 0.24, 3.3 0.3 M2.56 -0.84 C3.48 0.48, 4.05 5.07, 3.92 6.09 M3.49 0.49 C3.36 1.27, 2.85 3.22, 2.56 7.84 M2.66 7.35 C1.93 7.53, 1.25 7.88, 0.13 6.72 M2.94 7.63 C2.14 7.51, 1.13 7.45, -0.2 7.5 M-0.12 8.48 C-0.87 5.92, -1.32 3.23, -0.41 -0.24 M-0.35 6.66 C0.69 5.14, 0.18 1.8, 0.72 0.55" stroke="#000000" stroke-width="1" fill="none"></path></g><g stroke-linecap="round" transform="translate(1086.2581235170842 491.98017413520165) rotate(303.0460002072582 1.6257877608342142 3.6636887136292557)"><path d="M0 0 C0 0, 0 0, 0 0 M0 0 C0 0, 0 0, 0 0 M-1 7.33 C-0.12 4.88, 2.89 2.1, 5.08 1.27 M0.15 6.21 C0.45 5.27, 1.98 4.19, 4.23 0.78 M0.15 7.45 C0.15 7.45, 0.15 7.45, 0.15 7.45 M0.15 7.45 C0.15 7.45, 0.15 7.45, 0.15 7.45 M4.41 6.19 C1.37 4.57, 1.2 1.84, -1.28 1.51 M4.26 6.29 C2.55 4.35, 1.43 2.69, -0.29 1.6" stroke="#000000" stroke-width="0.5" fill="none"></path><path d="M0.6 0.36 C1.37 0.05, 1.88 0.32, 2.79 0.18 M0.22 0.12 C0.9 0.29, 1.83 0.07, 3.55 -0.11 M2.41 0.16 C1.79 3.29, 4.43 5.78, 2.02 6.63 M3.74 -0.01 C2.71 2.29, 2.82 4.94, 3.77 7.82 M3.28 7.2 C2.68 7.65, 2.26 7.4, -0.6 7.48 M3.56 7.27 C2.71 7.25, 1.88 7.06, 0.17 7.33 M1.15 6.53 C0.65 3.52, 0.18 1.81, -0.24 1.27 M-0.66 7.97 C0.57 5.5, 0.07 4.12, 0.55 -0.56" stroke="#000000" stroke-width="1" fill="none"></path></g><g stroke-linecap="round" transform="translate(1085.521632644165 475.90361658293205) rotate(233.50826307900493 1.6257877608342142 3.6636887136292557)"><path d="M0 0 C0 0, 0 0, 0 0 M0 0 C0 0, 0 0, 0 0 M0.67 5.11 C1.07 5.35, 1.14 4.34, 4.49 0.62 M-0.45 5.92 C1.48 4.48, 3.28 2.84, 3.99 1.35 M0.15 7.45 C0.15 7.45, 0.15 7.45, 0.15 7.45 M0.15 7.45 C0.15 7.45, 0.15 7.45, 0.15 7.45 M4.73 4.62 C3.1 4.98, 0.47 2.22, -0.55 2.07 M4.82 5.53 C2.53 4.41, 0.47 2.8, -0.46 1.26" stroke="#000000" stroke-width="0.5" fill="none"></path><path d="M0.36 0.15 C0.88 -0.63, 1.91 -0.52, 3.43 -0.35 M0.12 0.1 C1.16 0.18, 1.83 0.25, 3.14 0.16 M3.41 -1.46 C3.91 3.38, 3.86 3.15, 2.56 8.56 M3.24 -0.58 C2.77 1.93, 2.61 5.33, 3.74 6.85 M3.12 7.52 C2.57 7.86, 1.25 6.73, 0.15 6.9 M3.2 7.55 C2.45 7.55, 1.47 7.56, 0.01 7.49 M-0.8 8.13 C-1.24 4.73, -0.39 1.25, 1.27 -0.48 M0.65 7.97 C0.2 4.9, 0.79 2.74, -0.56 -0.07" stroke="#000000" stroke-width="1" fill="none"></path></g><g stroke-linecap="round"><g transform="translate(845.0262451171875 386.61712646484375) rotate(0 -270.5520978798718 -60.83228078581391)"><path d="M1.16 -0.69 C-43.8 -10.66, -179.87 -40.33, -270.36 -60.76 C-360.86 -81.18, -496.61 -112.85, -541.83 -123.23 M0.31 1.57 C-44.68 -8.65, -180.43 -41.82, -270.85 -62.38 C-361.28 -82.95, -497.24 -111.93, -542.26 -121.83" stroke="#000000" stroke-width="1" fill="none"></path></g><g transform="translate(845.0262451171875 386.61712646484375) rotate(0 -270.5520978798718 -60.83228078581391)"><path d="M-513.68 -124.43 C-518.39 -123.52, -527.08 -122.24, -541.68 -123.51 M-512.19 -125.43 C-521.67 -123.67, -531.88 -122.62, -542.81 -122.61" stroke="#000000" stroke-width="1" fill="none"></path></g><g transform="translate(845.0262451171875 386.61712646484375) rotate(0 -270.5520978798718 -60.83228078581391)"><path d="M-518.03 -104.37 C-521.51 -108.49, -529.12 -112.2, -541.68 -123.51 M-516.54 -105.37 C-524.57 -110.34, -533.33 -115.97, -542.81 -122.61" stroke="#000000" stroke-width="1" fill="none"></path></g></g><g stroke-linecap="round"><g transform="translate(839.0462646484375 354.7568359375) rotate(0 -16.10606676115185 -48.07028819472063)"><path d="M1.07 -0.86 C-5.93 -8.55, -43 -30.19, -41.61 -46.29 C-40.21 -62.38, 1 -88.95, 9.43 -97.44 M0.18 1.3 C-6.46 -6.7, -40.66 -31.62, -39.25 -47.89 C-37.84 -64.17, 0.6 -88.29, 8.64 -96.35" stroke="#000000" stroke-width="1" fill="none"></path></g><g transform="translate(839.0462646484375 354.7568359375) rotate(0 -16.10606676115185 -48.07028819472063)"><path d="M-8.35 -71.81 C-0.08 -79.48, 2.72 -88.74, 8.22 -95.42 M-7.23 -70.39 C-0.49 -79.99, 4.27 -89.08, 9.1 -97.02" stroke="#000000" stroke-width="1" fill="none"></path></g><g transform="translate(839.0462646484375 354.7568359375) rotate(0 -16.10606676115185 -48.07028819472063)"><path d="M-21.21 -87.81 C-8.67 -90.27, -1.6 -94.21, 8.22 -95.42 M-20.08 -86.39 C-8.86 -90.37, 0.48 -93.77, 9.1 -97.02" stroke="#000000" stroke-width="1" fill="none"></path></g></g><g transform="translate(516.8472900390625 274.84063720703125) rotate(0 49.5 12.5)"><text x="0" y="18" font-family="Virgil, Segoe UI Emoji" font-size="20px" fill="#000000" text-anchor="start" style="white-space: pre;" direction="ltr">Replicator</text></g></svg>